# MagicaVoxel @ ephtracy

# material
mtllib Hostage1.mtl

# normals
vn -1 0 0
vn 1 0 0
vn 0 0 1
vn 0 0 -1
vn 0 -1 0
vn 0 1 0

# texcoords
vt 0.0761719 0.5
vt 0.228516 0.5
vt 0.259766 0.5
vt 0.388672 0.5
vt 0.474609 0.5
vt 0.771484 0.5
vt 0.990234 0.5
vt 0.994141 0.5

# verts
v -2.5 3 2.5
v -2.5 4 2.5
v -2.5 4 1.5
v -2.5 3 1.5
v 0.5 3 2.5
v 0.5 4 2.5
v 0.5 4 1.5
v 0.5 3 1.5
v -2.5 4 0.5
v -2.5 3 0.5
v 0.5 4 0.5
v 0.5 3 0.5
v -2.5 4 -0.5
v -2.5 3 -0.5
v 0.5 4 -0.5
v 0.5 3 -0.5
v -2.5 5 2.5
v -2.5 5 1.5
v 0.5 5 2.5
v 0.5 5 1.5
v -2.5 5 0.5
v 0.5 5 0.5
v -2.5 5 -0.5
v 0.5 5 -0.5
v -2.5 6 2.5
v -2.5 6 1.5
v 0.5 6 2.5
v 0.5 6 1.5
v -2.5 6 0.5
v 0.5 6 0.5
v -2.5 6 -0.5
v 0.5 6 -0.5
v -2.5 7 2.5
v -2.5 7 1.5
v 0.5 7 2.5
v 0.5 7 1.5
v -2.5 7 0.5
v 0.5 7 0.5
v -2.5 7 -0.5
v 0.5 7 -0.5
v -2.5 8 2.5
v -2.5 8 1.5
v 0.5 8 2.5
v 0.5 8 1.5
v -2.5 8 0.5
v 0.5 8 0.5
v -2.5 8 -0.5
v 0.5 8 -0.5
v -2.5 9 2.5
v -2.5 9 1.5
v -2.5 9 0.5
v -2.5 9 -0.5
v -2.5 10 2.5
v -2.5 10 1.5
v -2.5 10 0.5
v -2.5 10 -0.5
v -2.5 11 2.5
v -2.5 11 1.5
v -2.5 11 0.5
v -2.5 11 -0.5
v -2.5 12 2.5
v -2.5 12 1.5
v -2.5 12 0.5
v -2.5 12 -0.5
v -2.5 13 2.5
v -2.5 13 1.5
v -2.5 13 0.5
v -2.5 13 -0.5
v -2.5 14 2.5
v -2.5 14 1.5
v -2.5 14 0.5
v -2.5 14 -0.5
v -5.5 15 2.5
v -5.5 16 2.5
v -5.5 16 1.5
v -5.5 15 1.5
v -5.5 16 0.5
v -5.5 15 0.5
v -5.5 14 2.5
v -5.5 14 1.5
v -5.5 16 -0.5
v -5.5 15 -0.5
v -5.5 14 0.5
v -5.5 14 -0.5
v 3.5 13 0.5
v 3.5 14 0.5
v 3.5 14 -0.5
v 3.5 13 -0.5
v 3.5 13 1.5
v 3.5 14 1.5
v 3.5 13 2.5
v 3.5 14 2.5
v -2.5 20 2.5
v -2.5 21 2.5
v -2.5 21 1.5
v -2.5 20 1.5
v -1.5 16 1.5
v -1.5 17 1.5
v -1.5 17 0.5
v -1.5 16 0.5
v -2.5 17 0.5
v -2.5 18 0.5
v -2.5 18 -0.5
v -2.5 17 -0.5
v -2.5 17 1.5
v -2.5 18 1.5
v -2.5 17 2.5
v -2.5 18 2.5
v -2.5 19 1.5
v -2.5 19 0.5
v -2.5 19 2.5
v -2.5 19 -0.5
v -2.5 20 0.5
v -2.5 20 -0.5
v -5.5 11 1.5
v -5.5 12 1.5
v -5.5 12 0.5
v -5.5 11 0.5
v 3.5 11 2.5
v 3.5 12 2.5
v 3.5 12 1.5
v 3.5 11 1.5
v -5.5 11 2.5
v -5.5 12 2.5
v -5.5 12 -0.5
v -5.5 11 -0.5
v -2.5 21 0.5
v -2.5 21 -0.5
v -5.5 13 0.5
v -5.5 13 -0.5
v -5.5 13 1.5
v -5.5 13 2.5
v 3.5 12 0.5
v 3.5 12 -0.5
v 3.5 11 0.5
v 3.5 11 -0.5
v -0.5 3 2.5
v -0.5 3 1.5
v -0.5 4 1.5
v -0.5 4 2.5
v 2.5 3 2.5
v 2.5 3 1.5
v 2.5 4 1.5
v 2.5 4 2.5
v -0.5 3 0.5
v -0.5 4 0.5
v 2.5 3 0.5
v 2.5 4 0.5
v -0.5 3 -0.5
v -0.5 4 -0.5
v 2.5 3 -0.5
v 2.5 4 -0.5
v -0.5 5 1.5
v -0.5 5 2.5
v 2.5 5 1.5
v 2.5 5 2.5
v -0.5 5 0.5
v 2.5 5 0.5
v -0.5 5 -0.5
v 2.5 5 -0.5
v 5.5 14 0.5
v 5.5 14 -0.5
v 5.5 15 -0.5
v 5.5 15 0.5
v -0.5 6 1.5
v -0.5 6 2.5
v 2.5 6 1.5
v 2.5 6 2.5
v -0.5 6 0.5
v 2.5 6 0.5
v -0.5 6 -0.5
v 2.5 6 -0.5
v -0.5 7 1.5
v -0.5 7 2.5
v 2.5 7 1.5
v 2.5 7 2.5
v -0.5 7 0.5
v 2.5 7 0.5
v -0.5 7 -0.5
v 2.5 7 -0.5
v -0.5 8 1.5
v -0.5 8 2.5
v 2.5 8 1.5
v 2.5 8 2.5
v -0.5 8 0.5
v 2.5 8 0.5
v -0.5 8 -0.5
v 2.5 8 -0.5
v 2.5 9 1.5
v 2.5 9 2.5
v 2.5 9 0.5
v 2.5 9 -0.5
v 2.5 13 0.5
v 2.5 13 -0.5
v 2.5 14 -0.5
v 2.5 14 0.5
v 2.5 10 1.5
v 2.5 10 2.5
v 2.5 10 0.5
v 2.5 10 -0.5
v 2.5 11 1.5
v 2.5 11 2.5
v 2.5 11 0.5
v 2.5 11 -0.5
v 2.5 12 1.5
v 2.5 12 2.5
v 2.5 12 0.5
v 2.5 12 -0.5
v 2.5 13 1.5
v 2.5 13 2.5
v 2.5 14 1.5
v 2.5 14 2.5
v 5.5 15 2.5
v 5.5 15 1.5
v 5.5 16 1.5
v 5.5 16 2.5
v 5.5 16 0.5
v 5.5 14 2.5
v 5.5 14 1.5
v 5.5 16 -0.5
v 5.5 13 0.5
v 5.5 13 -0.5
v 5.5 13 1.5
v 5.5 13 2.5
v 2.5 20 0.5
v 2.5 20 -0.5
v 2.5 21 -0.5
v 2.5 21 0.5
v 1.5 16 1.5
v 1.5 16 0.5
v 1.5 17 0.5
v 1.5 17 1.5
v 2.5 17 1.5
v 2.5 17 0.5
v 2.5 18 0.5
v 2.5 18 1.5
v 2.5 17 -0.5
v 2.5 18 -0.5
v 2.5 17 2.5
v 2.5 18 2.5
v -3.5 11 2.5
v -3.5 11 1.5
v -3.5 12 1.5
v -3.5 12 2.5
v 2.5 19 0.5
v 2.5 19 1.5
v 2.5 19 2.5
v 2.5 20 1.5
v 2.5 20 2.5
v 5.5 11 0.5
v 5.5 11 -0.5
v 5.5 12 -0.5
v 5.5 12 0.5
v 5.5 11 1.5
v 5.5 12 1.5
v -3.5 11 0.5
v -3.5 12 0.5
v 2.5 19 -0.5
v 5.5 11 2.5
v 5.5 12 2.5
v 2.5 21 1.5
v 2.5 21 2.5
v -3.5 13 0.5
v -3.5 13 -0.5
v -3.5 14 -0.5
v -3.5 14 0.5
v -3.5 13 1.5
v -3.5 14 1.5
v -3.5 13 2.5
v -3.5 14 2.5
v -3.5 12 -0.5
v -3.5 11 -0.5
v -1.5 3 2.5
v -1.5 4 2.5
v 1.5 3 2.5
v 1.5 4 2.5
v -1.5 5 2.5
v 1.5 5 2.5
v -1.5 6 2.5
v 1.5 6 2.5
v -1.5 7 2.5
v 1.5 7 2.5
v 3.5 15 2.5
v 4.5 15 2.5
v 4.5 16 2.5
v 3.5 16 2.5
v 2.5 15 2.5
v 2.5 16 2.5
v -1.5 8 2.5
v 1.5 8 2.5
v 1.5 15 2.5
v 1.5 16 2.5
v 0.5 15 2.5
v 0.5 16 2.5
v -0.5 15 2.5
v -0.5 16 2.5
v -1.5 15 2.5
v -1.5 16 2.5
v -2.5 15 2.5
v -2.5 16 2.5
v -1.5 9 2.5
v -0.5 9 2.5
v 0.5 9 2.5
v 1.5 9 2.5
v -3.5 15 2.5
v -3.5 16 2.5
v -4.5 15 2.5
v -4.5 16 2.5
v 4.5 14 2.5
v -1.5 10 2.5
v -0.5 10 2.5
v 0.5 10 2.5
v 1.5 10 2.5
v 1.5 14 2.5
v 0.5 14 2.5
v -0.5 14 2.5
v -1.5 14 2.5
v -1.5 11 2.5
v -0.5 11 2.5
v 0.5 11 2.5
v 1.5 11 2.5
v -4.5 14 2.5
v -1.5 12 2.5
v -0.5 12 2.5
v 0.5 12 2.5
v 1.5 12 2.5
v -1.5 13 2.5
v -0.5 13 2.5
v 0.5 13 2.5
v 1.5 13 2.5
v -0.5 20 2.5
v 0.5 20 2.5
v 0.5 21 2.5
v -0.5 21 2.5
v -1.5 20 2.5
v -1.5 21 2.5
v 1.5 20 2.5
v 1.5 21 2.5
v 4.5 13 2.5
v 0.5 16 1.5
v 0.5 17 1.5
v -0.5 16 1.5
v -0.5 17 1.5
v 1.5 17 2.5
v 1.5 18 2.5
v 0.5 17 2.5
v 0.5 18 2.5
v -0.5 17 2.5
v -0.5 18 2.5
v -1.5 17 2.5
v -1.5 18 2.5
v -4.5 11 2.5
v -4.5 12 2.5
v 1.5 19 2.5
v 0.5 19 2.5
v -0.5 19 2.5
v -1.5 19 2.5
v 4.5 11 2.5
v 4.5 12 2.5
v -4.5 13 2.5
v 3.5 15 -0.5
v 3.5 16 -0.5
v 4.5 16 -0.5
v 4.5 15 -0.5
v 2.5 15 -0.5
v 2.5 16 -0.5
v 1.5 15 -0.5
v 1.5 16 -0.5
v 0.5 15 -0.5
v 0.5 16 -0.5
v -1.5 4 -0.5
v -1.5 3 -0.5
v 1.5 4 -0.5
v 1.5 3 -0.5
v -0.5 15 -0.5
v -0.5 16 -0.5
v -1.5 15 -0.5
v -1.5 16 -0.5
v -2.5 15 -0.5
v -2.5 16 -0.5
v -3.5 15 -0.5
v -3.5 16 -0.5
v -1.5 5 -0.5
v 1.5 5 -0.5
v 4.5 14 -0.5
v -1.5 6 -0.5
v 1.5 6 -0.5
v -1.5 7 -0.5
v 1.5 7 -0.5
v -1.5 8 -0.5
v 1.5 8 -0.5
v -1.5 9 -0.5
v -0.5 9 -0.5
v 0.5 9 -0.5
v 1.5 9 -0.5
v 0.5 13 -0.5
v 0.5 14 -0.5
v 1.5 14 -0.5
v 1.5 13 -0.5
v -1.5 10 -0.5
v -0.5 10 -0.5
v 0.5 10 -0.5
v 1.5 10 -0.5
v -1.5 11 -0.5
v -0.5 11 -0.5
v 0.5 11 -0.5
v 1.5 11 -0.5
v -0.5 14 -0.5
v -1.5 12 -0.5
v -0.5 12 -0.5
v 0.5 12 -0.5
v 1.5 12 -0.5
v -1.5 14 -0.5
v -4.5 14 -0.5
v -4.5 15 -0.5
v -1.5 13 -0.5
v -0.5 13 -0.5
v -4.5 16 -0.5
v 0.5 20 -0.5
v 0.5 21 -0.5
v 1.5 21 -0.5
v 1.5 20 -0.5
v -0.5 20 -0.5
v -0.5 21 -0.5
v 4.5 13 -0.5
v 0.5 16 0.5
v 0.5 17 0.5
v -0.5 16 0.5
v -0.5 17 0.5
v -1.5 17 -0.5
v -1.5 18 -0.5
v -0.5 18 -0.5
v -0.5 17 -0.5
v 0.5 18 -0.5
v 0.5 17 -0.5
v 1.5 18 -0.5
v 1.5 17 -0.5
v -1.5 19 -0.5
v -0.5 19 -0.5
v 0.5 19 -0.5
v -1.5 20 -0.5
v 4.5 11 -0.5
v 4.5 12 -0.5
v 1.5 19 -0.5
v -4.5 12 -0.5
v -4.5 11 -0.5
v -1.5 21 -0.5
v -4.5 13 -0.5
v -1.5 3 1.5
v 1.5 3 1.5
v -1.5 3 0.5
v 1.5 3 0.5
v -4.5 11 1.5
v 4.5 11 0.5
v -4.5 11 0.5
v 4.5 11 1.5
v 3.5 16 0.5
v 4.5 16 0.5
v 2.5 16 0.5
v -2.5 16 0.5
v -3.5 16 0.5
v 3.5 16 1.5
v 4.5 16 1.5
v 2.5 16 1.5
v -2.5 16 1.5
v -3.5 16 1.5
v -4.5 16 1.5
v -4.5 16 0.5
v 0.5 21 0.5
v 1.5 21 0.5
v 0.5 21 1.5
v -0.5 21 1.5
v -0.5 21 0.5
v -1.5 21 1.5
v 1.5 21 1.5
v -1.5 21 0.5

# faces

usemtl palette

f 1/7/1 2/7/1 3/7/1 4/7/1

f 5/7/1 6/7/1 7/7/1 8/7/1

f 4/7/1 3/7/1 9/7/1 10/7/1

f 8/7/1 7/7/1 11/7/1 12/7/1

f 10/7/1 9/7/1 13/7/1 14/7/1

f 12/7/1 11/7/1 15/7/1 16/7/1

f 2/7/1 17/7/1 18/7/1 3/7/1

f 6/7/1 19/7/1 20/7/1 7/7/1

f 3/7/1 18/7/1 21/7/1 9/7/1

f 7/7/1 20/7/1 22/7/1 11/7/1

f 9/7/1 21/7/1 23/7/1 13/7/1

f 11/7/1 22/7/1 24/7/1 15/7/1

f 17/7/1 25/7/1 26/7/1 18/7/1

f 19/7/1 27/7/1 28/7/1 20/7/1

f 18/7/1 26/7/1 29/7/1 21/7/1

f 20/7/1 28/7/1 30/7/1 22/7/1

f 21/7/1 29/7/1 31/7/1 23/7/1

f 22/7/1 30/7/1 32/7/1 24/7/1

f 25/7/1 33/7/1 34/7/1 26/7/1

f 27/7/1 35/7/1 36/7/1 28/7/1

f 26/7/1 34/7/1 37/7/1 29/7/1

f 28/7/1 36/7/1 38/7/1 30/7/1

f 29/7/1 37/7/1 39/7/1 31/7/1

f 30/7/1 38/7/1 40/7/1 32/7/1

f 33/7/1 41/7/1 42/7/1 34/7/1

f 35/7/1 43/7/1 44/7/1 36/7/1

f 34/7/1 42/7/1 45/7/1 37/7/1

f 36/7/1 44/7/1 46/7/1 38/7/1

f 37/7/1 45/7/1 47/7/1 39/7/1

f 38/7/1 46/7/1 48/7/1 40/7/1

f 41/7/1 49/7/1 50/7/1 42/7/1

f 42/7/1 50/7/1 51/7/1 45/7/1

f 45/7/1 51/7/1 52/7/1 47/7/1

f 49/7/1 53/7/1 54/7/1 50/7/1

f 50/7/1 54/7/1 55/7/1 51/7/1

f 51/7/1 55/7/1 56/7/1 52/7/1

f 53/1/1 57/1/1 58/1/1 54/1/1

f 54/1/1 58/1/1 59/1/1 55/1/1

f 55/1/1 59/1/1 60/1/1 56/1/1

f 57/1/1 61/1/1 62/1/1 58/1/1

f 58/1/1 62/1/1 63/1/1 59/1/1

f 59/1/1 63/1/1 64/1/1 60/1/1

f 61/1/1 65/1/1 66/1/1 62/1/1

f 62/1/1 66/1/1 67/1/1 63/1/1

f 63/1/1 67/1/1 68/1/1 64/1/1

f 65/1/1 69/1/1 70/1/1 66/1/1

f 66/1/1 70/1/1 71/1/1 67/1/1

f 67/1/1 71/1/1 72/1/1 68/1/1

f 73/1/1 74/1/1 75/1/1 76/1/1

f 76/1/1 75/1/1 77/1/1 78/1/1

f 79/1/1 73/1/1 76/1/1 80/1/1

f 78/1/1 77/1/1 81/1/1 82/1/1

f 80/1/1 76/1/1 78/1/1 83/1/1

f 83/1/1 78/1/1 82/1/1 84/1/1

f 85/1/1 86/1/1 87/1/1 88/1/1

f 89/1/1 90/1/1 86/1/1 85/1/1

f 91/1/1 92/1/1 90/1/1 89/1/1

f 93/4/1 94/4/1 95/4/1 96/4/1

f 97/3/1 98/3/1 99/3/1 100/3/1

f 101/3/1 102/3/1 103/3/1 104/3/1

f 105/3/1 106/3/1 102/3/1 101/3/1

f 107/3/1 108/3/1 106/3/1 105/3/1

f 106/3/1 109/3/1 110/3/1 102/3/1

f 108/3/1 111/3/1 109/3/1 106/3/1

f 102/3/1 110/3/1 112/3/1 103/3/1

f 110/3/1 113/3/1 114/3/1 112/3/1

f 109/4/1 96/4/1 113/4/1 110/4/1

f 111/4/1 93/4/1 96/4/1 109/4/1

f 115/1/1 116/1/1 117/1/1 118/1/1

f 119/1/1 120/1/1 121/1/1 122/1/1

f 123/1/1 124/1/1 116/1/1 115/1/1

f 118/1/1 117/1/1 125/1/1 126/1/1

f 96/4/1 95/4/1 127/4/1 113/4/1

f 113/4/1 127/4/1 128/4/1 114/4/1

f 129/1/1 83/1/1 84/1/1 130/1/1

f 131/1/1 80/1/1 83/1/1 129/1/1

f 132/1/1 79/1/1 80/1/1 131/1/1

f 117/1/1 129/1/1 130/1/1 125/1/1

f 133/1/1 85/1/1 88/1/1 134/1/1

f 121/1/1 89/1/1 85/1/1 133/1/1

f 120/1/1 91/1/1 89/1/1 121/1/1

f 124/1/1 132/1/1 131/1/1 116/1/1

f 116/1/1 131/1/1 129/1/1 117/1/1

f 135/1/1 133/1/1 134/1/1 136/1/1

f 122/1/1 121/1/1 133/1/1 135/1/1

f 137/7/2 138/7/2 139/7/2 140/7/2

f 141/7/2 142/7/2 143/7/2 144/7/2

f 138/7/2 145/7/2 146/7/2 139/7/2

f 142/7/2 147/7/2 148/7/2 143/7/2

f 145/7/2 149/7/2 150/7/2 146/7/2

f 147/7/2 151/7/2 152/7/2 148/7/2

f 140/7/2 139/7/2 153/7/2 154/7/2

f 144/7/2 143/7/2 155/7/2 156/7/2

f 139/7/2 146/7/2 157/7/2 153/7/2

f 143/7/2 148/7/2 158/7/2 155/7/2

f 146/7/2 150/7/2 159/7/2 157/7/2

f 148/7/2 152/7/2 160/7/2 158/7/2

f 161/1/2 162/1/2 163/1/2 164/1/2

f 154/7/2 153/7/2 165/7/2 166/7/2

f 156/7/2 155/7/2 167/7/2 168/7/2

f 153/7/2 157/7/2 169/7/2 165/7/2

f 155/7/2 158/7/2 170/7/2 167/7/2

f 157/7/2 159/7/2 171/7/2 169/7/2

f 158/7/2 160/7/2 172/7/2 170/7/2

f 166/7/2 165/7/2 173/7/2 174/7/2

f 168/7/2 167/7/2 175/7/2 176/7/2

f 165/7/2 169/7/2 177/7/2 173/7/2

f 167/7/2 170/7/2 178/7/2 175/7/2

f 169/7/2 171/7/2 179/7/2 177/7/2

f 170/7/2 172/7/2 180/7/2 178/7/2

f 174/7/2 173/7/2 181/7/2 182/7/2

f 176/7/2 175/7/2 183/7/2 184/7/2

f 173/7/2 177/7/2 185/7/2 181/7/2

f 175/7/2 178/7/2 186/7/2 183/7/2

f 177/7/2 179/7/2 187/7/2 185/7/2

f 178/7/2 180/7/2 188/7/2 186/7/2

f 184/7/2 183/7/2 189/7/2 190/7/2

f 183/7/2 186/7/2 191/7/2 189/7/2

f 186/7/2 188/7/2 192/7/2 191/7/2

f 193/1/2 194/1/2 195/1/2 196/1/2

f 190/7/2 189/7/2 197/7/2 198/7/2

f 189/7/2 191/7/2 199/7/2 197/7/2

f 191/7/2 192/7/2 200/7/2 199/7/2

f 198/1/2 197/1/2 201/1/2 202/1/2

f 197/1/2 199/1/2 203/1/2 201/1/2

f 199/1/2 200/1/2 204/1/2 203/1/2

f 202/1/2 201/1/2 205/1/2 206/1/2

f 201/1/2 203/1/2 207/1/2 205/1/2

f 203/1/2 204/1/2 208/1/2 207/1/2

f 206/1/2 205/1/2 209/1/2 210/1/2

f 205/1/2 207/1/2 193/1/2 209/1/2

f 207/1/2 208/1/2 194/1/2 193/1/2

f 210/1/2 209/1/2 211/1/2 212/1/2

f 209/1/2 193/1/2 196/1/2 211/1/2

f 213/1/2 214/1/2 215/1/2 216/1/2

f 214/1/2 164/1/2 217/1/2 215/1/2

f 218/1/2 219/1/2 214/1/2 213/1/2

f 164/1/2 163/1/2 220/1/2 217/1/2

f 219/1/2 161/1/2 164/1/2 214/1/2

f 221/1/2 222/1/2 162/1/2 161/1/2

f 223/1/2 221/1/2 161/1/2 219/1/2

f 224/1/2 223/1/2 219/1/2 218/1/2

f 225/4/2 226/4/2 227/4/2 228/4/2

f 229/3/2 230/3/2 231/3/2 232/3/2

f 233/3/2 234/3/2 235/3/2 236/3/2

f 234/3/2 237/3/2 238/3/2 235/3/2

f 239/3/2 233/3/2 236/3/2 240/3/2

f 241/1/2 242/1/2 243/1/2 244/1/2

f 236/3/2 235/3/2 245/3/2 246/3/2

f 240/3/2 236/3/2 246/3/2 247/3/2

f 247/4/2 246/4/2 248/4/2 249/4/2

f 246/4/2 245/4/2 225/4/2 248/4/2

f 250/1/2 251/1/2 252/1/2 253/1/2

f 254/1/2 250/1/2 253/1/2 255/1/2

f 242/1/2 256/1/2 257/1/2 243/1/2

f 235/3/2 238/3/2 258/3/2 245/3/2

f 259/1/2 254/1/2 255/1/2 260/1/2

f 249/4/2 248/4/2 261/4/2 262/4/2

f 248/4/2 225/4/2 228/4/2 261/4/2

f 263/1/2 264/1/2 265/1/2 266/1/2

f 267/1/2 263/1/2 266/1/2 268/1/2

f 269/1/2 267/1/2 268/1/2 270/1/2

f 253/1/2 252/1/2 222/1/2 221/1/2

f 257/1/2 271/1/2 264/1/2 263/1/2

f 243/1/2 257/1/2 263/1/2 267/1/2

f 244/1/2 243/1/2 267/1/2 269/1/2

f 260/1/2 255/1/2 223/1/2 224/1/2

f 255/1/2 253/1/2 221/1/2 223/1/2

f 256/1/2 272/1/2 271/1/2 257/1/2

f 245/3/2 258/3/2 226/3/2 225/3/2

f 1/7/3 273/7/3 274/7/3 2/7/3

f 273/7/3 137/7/3 140/7/3 274/7/3

f 5/7/3 275/7/3 276/7/3 6/7/3

f 275/7/3 141/7/3 144/7/3 276/7/3

f 2/7/3 274/7/3 277/7/3 17/7/3

f 274/7/3 140/7/3 154/7/3 277/7/3

f 6/7/3 276/7/3 278/7/3 19/7/3

f 276/7/3 144/7/3 156/7/3 278/7/3

f 17/7/3 277/7/3 279/7/3 25/7/3

f 277/7/3 154/7/3 166/7/3 279/7/3

f 19/7/3 278/7/3 280/7/3 27/7/3

f 278/7/3 156/7/3 168/7/3 280/7/3

f 25/7/3 279/7/3 281/7/3 33/7/3

f 279/7/3 166/7/3 174/7/3 281/7/3

f 27/7/3 280/7/3 282/7/3 35/7/3

f 280/7/3 168/7/3 176/7/3 282/7/3

f 283/1/3 284/1/3 285/1/3 286/1/3

f 287/1/3 283/1/3 286/1/3 288/1/3

f 33/7/3 281/7/3 289/7/3 41/7/3

f 281/7/3 174/7/3 182/7/3 289/7/3

f 35/7/3 282/7/3 290/7/3 43/7/3

f 282/7/3 176/7/3 184/7/3 290/7/3

f 291/1/3 287/1/3 288/1/3 292/1/3

f 293/1/3 291/1/3 292/1/3 294/1/3

f 295/1/3 293/1/3 294/1/3 296/1/3

f 297/1/3 295/1/3 296/1/3 298/1/3

f 299/1/3 297/1/3 298/1/3 300/1/3

f 41/7/3 289/7/3 301/7/3 49/7/3

f 289/7/3 182/7/3 302/7/3 301/7/3

f 182/7/3 43/7/3 303/7/3 302/7/3

f 43/7/3 290/7/3 304/7/3 303/7/3

f 290/7/3 184/7/3 190/7/3 304/7/3

f 305/1/3 299/1/3 300/1/3 306/1/3

f 307/1/3 305/1/3 306/1/3 308/1/3

f 92/1/3 309/1/3 284/1/3 283/1/3

f 49/7/3 301/7/3 310/7/3 53/7/3

f 301/7/3 302/7/3 311/7/3 310/7/3

f 302/7/3 303/7/3 312/7/3 311/7/3

f 303/7/3 304/7/3 313/7/3 312/7/3

f 304/7/3 190/7/3 198/7/3 313/7/3

f 314/1/3 212/1/3 287/1/3 291/1/3

f 315/1/3 314/1/3 291/1/3 293/1/3

f 316/1/3 315/1/3 293/1/3 295/1/3

f 317/1/3 316/1/3 295/1/3 297/1/3

f 69/1/3 317/1/3 297/1/3 299/1/3

f 53/1/3 310/1/3 318/1/3 57/1/3

f 310/1/3 311/1/3 319/1/3 318/1/3

f 311/1/3 312/1/3 320/1/3 319/1/3

f 312/1/3 313/1/3 321/1/3 320/1/3

f 313/1/3 198/1/3 202/1/3 321/1/3

f 322/1/3 270/1/3 305/1/3 307/1/3

f 57/1/3 318/1/3 323/1/3 61/1/3

f 318/1/3 319/1/3 324/1/3 323/1/3

f 319/1/3 320/1/3 325/1/3 324/1/3

f 320/1/3 321/1/3 326/1/3 325/1/3

f 321/1/3 202/1/3 206/1/3 326/1/3

f 61/1/3 323/1/3 327/1/3 65/1/3

f 323/1/3 324/1/3 328/1/3 327/1/3

f 324/1/3 325/1/3 329/1/3 328/1/3

f 325/1/3 326/1/3 330/1/3 329/1/3

f 326/1/3 206/1/3 210/1/3 330/1/3

f 65/1/3 327/1/3 317/1/3 69/1/3

f 327/1/3 328/1/3 316/1/3 317/1/3

f 328/1/3 329/1/3 315/1/3 316/1/3

f 329/1/3 330/1/3 314/1/3 315/1/3

f 330/1/3 210/1/3 212/1/3 314/1/3

f 284/1/3 213/1/3 216/1/3 285/1/3

f 73/1/3 307/1/3 308/1/3 74/1/3

f 309/1/3 218/1/3 213/1/3 284/1/3

f 79/1/3 322/1/3 307/1/3 73/1/3

f 331/4/3 332/4/3 333/4/3 334/4/3

f 335/4/3 331/4/3 334/4/3 336/4/3

f 332/4/3 337/4/3 338/4/3 333/4/3

f 339/1/3 224/1/3 218/1/3 309/1/3

f 91/1/3 339/1/3 309/1/3 92/1/3

f 93/4/3 335/4/3 336/4/3 94/4/3

f 270/1/3 69/1/3 299/1/3 305/1/3

f 212/1/3 92/1/3 283/1/3 287/1/3

f 340/3/3 229/3/3 232/3/3 341/3/3

f 342/3/3 340/3/3 341/3/3 343/3/3

f 97/3/3 342/3/3 343/3/3 98/3/3

f 344/3/3 239/3/3 240/3/3 345/3/3

f 346/3/3 344/3/3 345/3/3 347/3/3

f 348/3/3 346/3/3 347/3/3 349/3/3

f 350/3/3 348/3/3 349/3/3 351/3/3

f 107/3/3 350/3/3 351/3/3 108/3/3

f 352/1/3 241/1/3 244/1/3 353/1/3

f 345/3/3 240/3/3 247/3/3 354/3/3

f 347/3/3 345/3/3 354/3/3 355/3/3

f 349/3/3 347/3/3 355/3/3 356/3/3

f 108/3/3 351/3/3 357/3/3 111/3/3

f 351/3/3 349/3/3 356/3/3 357/3/3

f 356/4/3 355/4/3 332/4/3 331/4/3

f 111/4/3 357/4/3 335/4/3 93/4/3

f 355/4/3 354/4/3 337/4/3 332/4/3

f 354/4/3 247/4/3 249/4/3 337/4/3

f 357/4/3 356/4/3 331/4/3 335/4/3

f 119/1/3 358/1/3 359/1/3 120/1/3

f 123/1/3 352/1/3 353/1/3 124/1/3

f 358/1/3 259/1/3 260/1/3 359/1/3

f 337/4/3 249/4/3 262/4/3 338/4/3

f 360/1/3 269/1/3 270/1/3 322/1/3

f 132/1/3 360/1/3 322/1/3 79/1/3

f 120/1/3 359/1/3 339/1/3 91/1/3

f 353/1/3 244/1/3 269/1/3 360/1/3

f 359/1/3 260/1/3 224/1/3 339/1/3

f 124/1/3 353/1/3 360/1/3 132/1/3

f 361/1/4 362/1/4 363/1/4 364/1/4

f 365/1/4 366/1/4 362/1/4 361/1/4

f 367/1/4 368/1/4 366/1/4 365/1/4

f 369/1/4 370/1/4 368/1/4 367/1/4

f 14/7/4 13/7/4 371/7/4 372/7/4

f 372/7/4 371/7/4 150/7/4 149/7/4

f 16/7/4 15/7/4 373/7/4 374/7/4

f 374/7/4 373/7/4 152/7/4 151/7/4

f 375/6/4 376/6/4 370/6/4 369/6/4

f 377/1/4 378/1/4 376/1/4 375/1/4

f 379/1/4 380/1/4 378/1/4 377/1/4

f 381/1/4 382/1/4 380/1/4 379/1/4

f 13/7/4 23/7/4 383/7/4 371/7/4

f 371/7/4 383/7/4 159/7/4 150/7/4

f 15/7/4 24/7/4 384/7/4 373/7/4

f 373/7/4 384/7/4 160/7/4 152/7/4

f 385/1/4 364/1/4 163/1/4 162/1/4

f 23/7/4 31/7/4 386/7/4 383/7/4

f 383/7/4 386/7/4 171/7/4 159/7/4

f 24/7/4 32/7/4 387/7/4 384/7/4

f 384/7/4 387/7/4 172/7/4 160/7/4

f 31/7/4 39/7/4 388/7/4 386/7/4

f 386/7/4 388/7/4 179/7/4 171/7/4

f 32/7/4 40/7/4 389/7/4 387/7/4

f 387/7/4 389/7/4 180/7/4 172/7/4

f 39/7/4 47/7/4 390/7/4 388/7/4

f 388/7/4 390/7/4 187/7/4 179/7/4

f 40/7/4 48/7/4 391/7/4 389/7/4

f 389/7/4 391/7/4 188/7/4 180/7/4

f 47/7/4 52/7/4 392/7/4 390/7/4

f 390/7/4 392/7/4 393/7/4 187/7/4

f 187/7/4 393/7/4 394/7/4 48/7/4

f 48/7/4 394/7/4 395/7/4 391/7/4

f 391/7/4 395/7/4 192/7/4 188/7/4

f 396/1/4 397/1/4 398/1/4 399/1/4

f 399/1/4 398/1/4 195/1/4 194/1/4

f 52/7/4 56/7/4 400/7/4 392/7/4

f 392/7/4 400/7/4 401/7/4 393/7/4

f 393/7/4 401/7/4 402/7/4 394/7/4

f 394/7/4 402/7/4 403/7/4 395/7/4

f 395/7/4 403/7/4 200/7/4 192/7/4

f 56/1/4 60/1/4 404/1/4 400/1/4

f 400/1/4 404/1/4 405/1/4 401/1/4

f 401/6/4 405/6/4 406/6/4 402/6/4

f 402/1/4 406/1/4 407/1/4 403/1/4

f 403/1/4 407/1/4 204/1/4 200/1/4

f 87/1/4 361/1/4 364/1/4 385/1/4

f 398/1/4 367/1/4 365/1/4 195/1/4

f 397/1/4 369/1/4 367/1/4 398/1/4

f 408/6/4 375/6/4 369/6/4 397/6/4

f 60/1/4 64/1/4 409/1/4 404/1/4

f 404/1/4 409/1/4 410/1/4 405/1/4

f 405/6/4 410/6/4 411/6/4 406/6/4

f 406/1/4 411/1/4 412/1/4 407/1/4

f 407/1/4 412/1/4 208/1/4 204/1/4

f 413/1/4 377/1/4 375/1/4 408/1/4

f 72/1/4 379/1/4 377/1/4 413/1/4

f 414/1/4 415/1/4 381/1/4 265/1/4

f 64/1/4 68/1/4 416/1/4 409/1/4

f 409/1/4 416/1/4 417/1/4 410/1/4

f 410/6/4 417/6/4 396/6/4 411/6/4

f 411/1/4 396/1/4 399/1/4 412/1/4

f 412/1/4 399/1/4 194/1/4 208/1/4

f 68/1/4 72/1/4 413/1/4 416/1/4

f 416/1/4 413/1/4 408/1/4 417/1/4

f 417/6/4 408/6/4 397/6/4 396/6/4

f 364/1/4 363/1/4 220/1/4 163/1/4

f 82/1/4 81/1/4 418/1/4 415/1/4

f 419/4/4 420/4/4 421/4/4 422/4/4

f 84/1/4 82/1/4 415/1/4 414/1/4

f 423/4/4 424/4/4 420/4/4 419/4/4

f 88/1/4 87/1/4 385/1/4 425/1/4

f 425/1/4 385/1/4 162/1/4 222/1/4

f 422/4/4 421/4/4 227/4/4 226/4/4

f 265/1/4 381/1/4 379/1/4 72/1/4

f 195/1/4 365/1/4 361/1/4 87/1/4

f 426/3/4 427/3/4 231/3/4 230/3/4

f 428/3/4 429/3/4 427/3/4 426/3/4

f 100/3/4 99/3/4 429/3/4 428/3/4

f 430/3/4 431/3/4 432/3/4 433/3/4

f 433/3/4 432/3/4 434/3/4 435/3/4

f 435/3/4 434/3/4 436/3/4 437/3/4

f 437/3/4 436/3/4 238/3/4 237/3/4

f 104/3/4 103/3/4 431/3/4 430/3/4

f 431/8/4 438/8/4 439/8/4 432/8/4

f 103/3/4 112/3/4 438/3/4 431/3/4

f 432/3/4 439/3/4 440/3/4 434/3/4

f 112/3/4 114/3/4 441/3/4 438/3/4

f 442/1/4 443/1/4 252/1/4 251/1/4

f 434/8/4 440/8/4 444/8/4 436/8/4

f 436/3/4 444/3/4 258/3/4 238/3/4

f 126/1/4 125/1/4 445/1/4 446/1/4

f 114/4/4 128/4/4 447/4/4 441/4/4

f 441/4/4 447/4/4 424/4/4 423/4/4

f 415/1/4 418/1/4 382/1/4 381/1/4

f 448/1/4 414/1/4 265/1/4 264/1/4

f 130/1/4 84/1/4 414/1/4 448/1/4

f 443/1/4 425/1/4 222/1/4 252/1/4

f 125/1/4 130/1/4 448/1/4 445/1/4

f 134/1/4 88/1/4 425/1/4 443/1/4

f 445/1/4 448/1/4 264/1/4 271/1/4

f 136/1/4 134/1/4 443/1/4 442/1/4

f 446/1/4 445/1/4 271/1/4 272/1/4

f 444/3/4 422/3/4 226/3/4 258/3/4

f 440/3/4 419/3/4 422/3/4 444/3/4

f 439/3/4 423/3/4 419/3/4 440/3/4

f 438/3/4 441/3/4 423/3/4 439/3/4

f 1/7/5 4/7/5 449/7/5 273/7/5

f 273/7/5 449/7/5 138/7/5 137/7/5

f 5/7/5 8/7/5 450/7/5 275/7/5

f 275/7/5 450/7/5 142/7/5 141/7/5

f 4/7/5 10/7/5 451/7/5 449/7/5

f 449/7/5 451/7/5 145/7/5 138/7/5

f 8/7/5 12/7/5 452/7/5 450/7/5

f 450/7/5 452/7/5 147/7/5 142/7/5

f 10/7/5 14/7/5 372/7/5 451/7/5

f 451/7/5 372/7/5 149/7/5 145/7/5

f 12/7/5 16/7/5 374/7/5 452/7/5

f 452/7/5 374/7/5 151/7/5 147/7/5

f 182/7/5 181/7/5 44/7/5 43/7/5

f 181/7/5 185/7/5 46/7/5 44/7/5

f 185/7/5 187/7/5 48/7/5 46/7/5

f 266/1/5 265/1/5 72/1/5 71/1/5

f 196/1/5 195/1/5 87/1/5 86/1/5

f 268/1/5 266/1/5 71/1/5 70/1/5

f 211/1/5 196/1/5 86/1/5 90/1/5

f 270/1/5 268/1/5 70/1/5 69/1/5

f 212/1/5 211/1/5 90/1/5 92/1/5

f 99/3/5 430/3/5 433/3/5 429/3/5

f 429/3/5 433/3/5 435/3/5 427/3/5

f 427/3/5 435/3/5 437/3/5 231/3/5

f 232/3/5 231/3/5 234/3/5 233/3/5

f 231/3/5 437/3/5 237/3/5 234/3/5

f 344/3/5 232/3/5 233/3/5 239/3/5

f 346/3/5 341/3/5 232/3/5 344/3/5

f 348/3/5 343/3/5 341/3/5 346/3/5

f 350/3/5 98/3/5 343/3/5 348/3/5

f 101/3/5 104/3/5 430/3/5 99/3/5

f 105/3/5 101/3/5 99/3/5 98/3/5

f 107/3/5 105/3/5 98/3/5 350/3/5

f 352/1/5 453/1/5 242/1/5 241/1/5

f 454/1/5 442/1/5 251/1/5 250/1/5

f 115/1/5 118/1/5 455/1/5 453/1/5

f 456/1/5 454/1/5 250/1/5 254/1/5

f 453/1/5 455/1/5 256/1/5 242/1/5

f 119/1/5 122/1/5 456/1/5 358/1/5

f 123/1/5 115/1/5 453/1/5 352/1/5

f 358/1/5 456/1/5 254/1/5 259/1/5

f 118/1/5 126/1/5 446/1/5 455/1/5

f 135/1/5 136/1/5 442/1/5 454/1/5

f 455/1/5 446/1/5 272/1/5 256/1/5

f 122/1/5 135/1/5 454/1/5 456/1/5

f 457/1/6 458/1/6 363/1/6 362/1/6

f 459/1/6 457/1/6 362/1/6 366/1/6

f 230/1/6 459/1/6 366/1/6 368/1/6

f 426/1/6 230/1/6 368/1/6 370/1/6

f 428/6/6 426/6/6 370/6/6 376/6/6

f 100/1/6 428/1/6 376/1/6 378/1/6

f 460/1/6 100/1/6 378/1/6 380/1/6

f 461/1/6 460/1/6 380/1/6 382/1/6

f 462/1/6 463/1/6 458/1/6 457/1/6

f 464/1/6 462/1/6 457/1/6 459/1/6

f 229/1/6 464/1/6 459/1/6 230/1/6

f 465/1/6 97/1/6 100/1/6 460/1/6

f 466/1/6 465/1/6 460/1/6 461/1/6

f 467/1/6 466/1/6 461/1/6 468/1/6

f 286/1/6 285/1/6 463/1/6 462/1/6

f 288/1/6 286/1/6 462/1/6 464/1/6

f 292/1/6 288/1/6 464/1/6 229/1/6

f 294/1/6 292/1/6 229/1/6 340/1/6

f 296/1/6 294/1/6 340/1/6 342/1/6

f 298/1/6 296/1/6 342/1/6 97/1/6

f 300/1/6 298/1/6 97/1/6 465/1/6

f 306/1/6 300/1/6 465/1/6 466/1/6

f 308/1/6 306/1/6 466/1/6 467/1/6

f 285/1/6 216/1/6 215/1/6 463/1/6

f 74/1/6 308/1/6 467/1/6 75/1/6

f 463/1/6 215/1/6 217/1/6 458/1/6

f 75/1/6 467/1/6 468/1/6 77/1/6

f 458/1/6 217/1/6 220/1/6 363/1/6

f 77/1/6 468/1/6 418/1/6 81/1/6

f 469/4/6 470/4/6 421/4/6 420/4/6

f 334/4/6 333/4/6 471/4/6 472/4/6

f 473/4/6 469/4/6 420/4/6 424/4/6

f 336/4/6 334/4/6 472/4/6 474/4/6

f 333/4/6 338/4/6 475/4/6 471/4/6

f 470/4/6 228/4/6 227/4/6 421/4/6

f 94/4/6 336/4/6 474/4/6 95/4/6

f 338/4/6 262/4/6 261/4/6 475/4/6

f 475/4/6 261/4/6 228/4/6 470/4/6

f 471/4/6 475/4/6 470/4/6 469/4/6

f 472/4/6 471/4/6 469/4/6 473/4/6

f 474/4/6 472/4/6 473/4/6 476/4/6

f 95/4/6 474/4/6 476/4/6 127/4/6

f 127/4/6 476/4/6 447/4/6 128/4/6

f 476/4/6 473/4/6 424/4/6 447/4/6

f 468/1/6 461/1/6 382/1/6 418/1/6

# numNormals 6
# numTexCoords 8
# numVerts 476
# numFaces 474
